<svg width="411" height="147" viewBox="0 0 411 147" fill="none" xmlns="http://www.w3.org/2000/svg">
<g clip-path="url(#clip0_321_6)">
<path d="M411 44.8L393.875 56.9819C376.75 68.9812 342.5 93.6187 308.25 86.1819C274 79.0187 239.75 39.7812 205.5 39.9181C171.25 39.7812 137 79.0187 102.75 103.2C68.5 127.381 34.25 137.419 17.125 142.118L5.72205e-06 147L17.125 147C34.25 147 68.5 147 102.75 147C137 147 171.25 147 205.5 147C239.75 147 274 147 308.25 147C342.5 147 376.75 147 393.875 147H411V44.8Z" fill="#005394"/>
<path d="M411 109.104L393.875 105.966C376.75 102.591 342.5 96.6694 308.25 96.4918C274 96.6694 239.75 102.591 205.5 90.1561C171.25 77.7215 137 45.7468 102.75 36.4504C68.5 26.7988 34.25 39.8255 17.125 45.9244L5.72205e-06 52.2601V147L17.125 147C34.25 147 68.5 147 102.75 147C137 147 171.25 147 205.5 147C239.75 147 274 147 308.25 147C342.5 147 376.75 147 393.875 147H411V109.104Z" fill="#003C72"/>
<path d="M411 117.6L393.875 115.165C376.75 112.547 342.5 107.953 308.25 107.815C274 107.953 239.75 112.547 205.5 102.9C171.25 93.2531 137 68.4469 102.75 61.2347C68.5 53.7469 34.25 63.8531 17.125 68.5847L5.72205e-06 73.5V147L17.125 147C34.25 147 68.5 147 102.75 147C137 147 171.25 147 205.5 147C239.75 147 274 147 308.25 147C342.5 147 376.75 147 393.875 147H411V117.6Z" fill="#005394"/>
</g>
<defs>
<clipPath id="clip0_321_6">
<rect width="411" height="147" fill="white" transform="translate(411 147) rotate(-180)"/>
</clipPath>
</defs>
</svg>